# xmcd
#
# Track frame offsets: 
#        150
#        20677
#        43502
#
# Disc length: 760 seconds
#
# Revision: 0
# Processed by: cddbd v1.4PL0 Copyright (c) Steve Scherf et al.
# Submitted via: ExactAudioCopy v0.95a3
#
DISCID=1d02f603
DTITLE=Joshua Kadison - Picture Postcards from L.A.
DYEAR=1900
DGENRE=
TTITLE0=Picture Postcards from L.A. (Album Version)
TTITLE1=Picture Postcards from L.A. (Live)
TTITLE2=Mama´s Arms
EXTD=
EXTT0=
EXTT1=
EXTT2=
PLAYORDER=
